<?xml version="1.0" encoding="UTF-8"?>
<svg version="1.1" xmlns="http://www.w3.org/2000/svg" width="512" height="512">
<path d="M0 0 C1.22795245 -0.00445784 2.4559049 -0.00891569 3.72106802 -0.01350862 C5.08585716 -0.01341932 6.4506463 -0.01322948 7.81543541 -0.01294994 C9.26369143 -0.01624958 10.71194654 -0.01997536 12.16020048 -0.02409142 C16.14521232 -0.0341082 20.1302091 -0.0378277 24.11523175 -0.04048073 C28.41124121 -0.04438473 32.70723874 -0.053963 37.00324059 -0.0626936 C47.38064853 -0.08245518 57.75805745 -0.09252378 68.13547951 -0.10142139 C73.02252616 -0.10580474 77.90957172 -0.11117142 82.79661751 -0.11641026 C99.04245402 -0.13342214 115.28828986 -0.14791635 131.53413391 -0.155159 C135.74992054 -0.15706889 139.96570716 -0.15898922 144.18149376 -0.16094494 C145.22930505 -0.16142868 146.27711634 -0.16191242 147.35667948 -0.16241082 C164.33080175 -0.17071125 181.30485355 -0.19604858 198.27894504 -0.22852562 C215.70617263 -0.26159779 233.1333644 -0.2796079 250.56062353 -0.28280324 C260.3452678 -0.28496817 270.1298093 -0.29371446 279.91442299 -0.31926441 C288.24739384 -0.34097354 296.58023696 -0.34902077 304.91323288 -0.33929763 C309.16360868 -0.33475357 313.41372095 -0.33664526 317.66406059 -0.35605907 C321.55909797 -0.37369608 325.45367966 -0.37268892 329.34872191 -0.35716178 C330.75389092 -0.35478651 332.15909153 -0.35910515 333.56421228 -0.37099043 C345.16450046 -0.46299325 353.79778268 1.31547763 362.3548336 9.40765858 C366.2026231 13.35365152 368.62139021 17.19859061 371.03842735 22.13422108 C371.77367638 22.1488036 372.5089254 22.16338612 373.2664547 22.17841053 C376.64926516 22.25361362 380.03116546 22.3500329 383.41342735 22.44672108 C384.56971642 22.46927967 385.72600548 22.49183826 386.9173336 22.51508045 C399.02032211 22.89116202 409.44530891 25.22104834 418.0501461 34.24359608 C424.02807243 41.51235346 426.49998698 48.40461675 426.42610741 57.70439625 C426.43418571 58.94244057 426.43418571 58.94244057 426.44242722 60.20549589 C426.45665274 62.95134235 426.44961655 65.69670304 426.44248009 68.44257069 C426.44818647 70.41927444 426.45515177 72.39597489 426.46327782 74.37267017 C426.48119428 79.72804951 426.4800437 85.08326486 426.47433543 90.43866515 C426.47124152 94.91430638 426.47733827 99.38991621 426.48337418 103.86555296 C426.49741273 114.42608292 426.49586356 124.98653198 426.48447227 135.54706287 C426.47299046 146.4318731 426.48706942 157.31643696 426.51386875 168.20121473 C426.53603847 177.5568709 426.54266028 186.9124498 426.53679234 196.26813036 C426.53342478 201.85134569 426.53582468 207.43440308 426.55304337 213.01759624 C426.56853069 218.26835958 426.56453692 223.51875838 426.54573822 228.76950741 C426.54205738 230.69273911 426.54514605 232.61599792 426.55562401 234.5392046 C426.64884107 253.06838691 426.64884107 253.06838691 422.03842735 260.13422108 C421.58081017 260.93215076 421.12319298 261.73008045 420.6517086 262.55218983 C414.63343443 270.73921145 406.95191555 275.15302878 397.03842735 277.13422108 C391.44009161 277.46300125 385.83409573 277.33463906 380.23178673 277.13422108 C376.94977998 277.14183153 374.19446471 277.2239753 371.03842735 278.13422108 C368.54225221 280.82805169 367.396563 283.76143808 366.03842735 287.13422108 C360.79876718 293.79622413 354.38170894 298.38712247 346.03842735 300.13422108 C344.20814951 300.23235866 342.37473734 300.27759859 340.54186058 300.28812122 C338.86582756 300.30102192 338.86582756 300.30102192 337.15593529 300.31418324 C335.93452339 300.31844318 334.7131115 300.32270313 333.45468712 300.32709217 C332.16490959 300.33526966 330.87513206 300.34344715 329.54627037 300.35187244 C325.27414587 300.37802534 321.00201186 300.39338827 316.7298336 300.40765858 C315.25769037 300.41302007 313.7855472 300.41839759 312.31340408 300.42379093 C306.19088559 300.44540526 300.06836967 300.46414315 293.94582272 300.47541332 C285.17616183 300.49166435 276.40694307 300.52488601 267.63744885 300.58181417 C261.46748966 300.62050138 255.29764883 300.64004423 249.12757152 300.64533389 C245.44347123 300.64898763 241.75984324 300.6610112 238.07587433 300.69343662 C233.96750188 300.72908248 229.86008244 300.72514964 225.75156212 300.71771717 C224.53217445 300.73412251 223.31278679 300.75052784 222.05644798 300.76743031 C213.87031748 300.70663966 213.87031748 300.70663966 209.80635643 297.91025257 C208.03842735 295.13422108 208.03842735 295.13422108 207.03842735 290.13422108 C198.12842735 290.13422108 189.21842735 290.13422108 180.03842735 290.13422108 C180.03842735 291.78422108 180.03842735 293.43422108 180.03842735 295.13422108 C177.96142278 298.24972794 176.38874846 299.85751593 172.65561485 300.62250233 C168.08491643 300.86127016 165.72844962 300.61723666 161.91342735 297.94672108 C160.03842735 295.13422108 160.03842735 295.13422108 160.03842735 290.13422108 C151.45842735 290.13422108 142.87842735 290.13422108 134.03842735 290.13422108 C133.37842735 292.44422108 132.71842735 294.75422108 132.03842735 297.13422108 C129.86594982 299.46778748 128.62767826 300.04657805 125.4814415 300.51453781 C124.50995478 300.51696771 123.53846806 300.5193976 122.53754234 300.52190113 C120.85972679 300.53675808 120.85972679 300.53675808 119.14801598 300.55191517 C117.92510857 300.54741352 116.70220116 300.54291187 115.44223595 300.53827381 C113.5049865 300.54856869 113.5049865 300.54856869 111.52860069 300.55907154 C107.98688485 300.57702194 104.44541656 300.57583 100.90366888 300.57012916 C97.9418814 300.56703707 94.98014145 300.57313064 92.01836073 300.5791679 C85.02387007 300.59322044 78.02950149 300.59164852 71.03500938 300.580266 C63.8368161 300.56881022 56.63899651 300.58281565 49.44085252 300.60966247 C43.24955743 300.63188337 37.05837906 300.63844176 30.86704695 300.63258606 C27.17451391 300.6292273 23.4822198 300.63155774 19.78972054 300.64883709 C15.66323897 300.66730295 11.53747337 300.65305381 7.41098595 300.63593006 C6.20022392 300.64559803 4.9894619 300.655266 3.74201012 300.66522694 C-6.76531612 300.57422396 -14.59818901 298.12336154 -22.2779789 290.86078358 C-26.12576839 286.91479064 -28.5445355 283.06985155 -30.96157265 278.13422108 C-31.69682167 278.11963856 -32.43207069 278.10505604 -33.18959999 278.09003162 C-36.57241045 278.01482853 -39.95431075 277.91840925 -43.33657265 277.82172108 C-44.49286171 277.79916248 -45.64915077 277.77660389 -46.8404789 277.7533617 C-58.9434674 277.37728014 -69.3684542 275.04739382 -77.9732914 266.02484608 C-83.95121772 258.7560887 -86.42313228 251.86382541 -86.3492527 242.56404591 C-86.35463824 241.73868302 -86.36002378 240.91332014 -86.36557251 240.06294626 C-86.37979804 237.3170998 -86.37276185 234.57173912 -86.36562538 231.82587147 C-86.37133176 229.84916772 -86.37829706 227.87246726 -86.38642311 225.89577198 C-86.40433958 220.54039264 -86.40318899 215.18517729 -86.39748073 209.829777 C-86.39438681 205.35413577 -86.40048357 200.87852595 -86.40651947 196.40288919 C-86.42055802 185.84235923 -86.41900885 175.28191017 -86.40761757 164.72137928 C-86.39613576 153.83656905 -86.41021472 142.95200519 -86.43701404 132.06722742 C-86.45918376 122.71157126 -86.46580558 113.35599236 -86.45993763 104.00031179 C-86.45657007 98.41709647 -86.45896998 92.83403908 -86.47618866 87.25084591 C-86.49167598 82.00008257 -86.48768221 76.74968377 -86.46888351 71.49893475 C-86.46520267 69.57570305 -86.46829134 67.65244423 -86.4787693 65.72923756 C-86.57198636 47.20005525 -86.57198636 47.20005525 -81.96157265 40.13422108 C-81.27514687 38.93732655 -81.27514687 38.93732655 -80.5748539 37.71625233 C-74.55657972 29.5292307 -66.87506084 25.11541338 -56.96157265 23.13422108 C-51.3632369 22.8054409 -45.75724103 22.93380309 -40.15493202 23.13422108 C-36.87292528 23.12661063 -34.11761 23.04446685 -30.96157265 22.13422108 C-28.46539751 19.44039046 -27.3197083 16.50700407 -25.96157265 13.13422108 C-19.15403628 4.47873073 -10.97319274 0.0184744 0 0 Z M-6.92251015 23.68500233 C-7.38915077 24.26636951 -7.8557914 24.8477367 -8.33657265 25.44672108 C-9.05973671 26.3071703 -9.05973671 26.3071703 -9.79751015 27.18500233 C-12.71777151 32.07497019 -12.10494299 37.98708506 -12.09528542 43.49600697 C-12.09755097 44.44272428 -12.09981653 45.38944159 -12.10215074 46.3648473 C-12.10848402 49.5391236 -12.1076618 52.71335713 -12.10683632 55.88763905 C-12.10982821 58.16270471 -12.11323081 60.43776987 -12.11701393 62.71283436 C-12.1258547 68.89463203 -12.12819207 75.07641586 -12.12882972 81.25821924 C-12.12977891 86.41735325 -12.1334573 91.57648403 -12.13700181 96.7356168 C-12.14468127 108.21114085 -12.1476704 119.68665588 -12.14699646 131.16218184 C-12.1469565 131.85049873 -12.14691655 132.53881563 -12.14687538 133.24799061 C-12.1468345 133.93714955 -12.14679362 134.6263085 -12.1467515 135.33635105 C-12.14634504 146.50547642 -12.15591522 157.67456808 -12.17001375 168.8436837 C-12.18438166 180.31689596 -12.19110062 191.79008495 -12.19041997 203.26330769 C-12.19016486 209.70271477 -12.19302319 216.14208369 -12.20359802 222.58148289 C-12.2132713 228.63727906 -12.21336343 234.69300053 -12.20608139 240.74879932 C-12.20503462 242.97119347 -12.20740391 245.19359224 -12.21344185 247.41597843 C-12.2211515 250.45022967 -12.21652363 253.48422229 -12.20881081 256.5184679 C-12.21395437 257.39736742 -12.21909793 258.27626693 -12.22439736 259.18179977 C-12.19267969 264.8304146 -11.9370026 270.31698859 -8.58657265 275.09515858 C-5.03418804 278.18641633 -2.45606897 279.46273532 2.28842735 279.79828358 C3.1804586 279.86740955 4.07248985 279.93653553 4.99155235 280.00775623 C5.6670211 280.04948963 6.34248985 280.09122303 7.03842735 280.13422108 C7.08512149 264.27921955 7.12040348 248.42423654 7.1420517 232.56918335 C7.15236993 225.20761983 7.16644067 217.846099 7.18930626 210.48456287 C7.20922344 204.06921066 7.22213981 197.65388936 7.22660434 191.23850709 C7.22921457 187.84073709 7.23536101 184.44305553 7.24988747 181.04531384 C7.26433474 177.25482712 7.26640812 173.46452566 7.26547813 169.674016 C7.27266869 168.54401173 7.27985924 167.41400745 7.28726768 166.24976063 C7.28451836 165.21910984 7.28176903 164.18845905 7.27893639 163.12657642 C7.28077997 162.22967185 7.28262356 161.33276728 7.28452301 160.40868378 C7.18528627 157.85403496 7.18528627 157.85403496 5.03842735 155.13422108 C4.77280235 152.97797108 4.77280235 152.97797108 4.78842735 150.63422108 C4.7832711 149.86078358 4.77811485 149.08734608 4.77280235 148.29047108 C5.03842735 146.13422108 5.03842735 146.13422108 7.03842735 143.13422108 C7.23137233 140.30726007 7.30821279 137.57784181 7.29379845 134.75067616 C7.2974189 133.89502064 7.30103935 133.03936512 7.30476952 132.15778065 C7.31166623 130.29823657 7.31416844 128.43867224 7.31282234 126.57911587 C7.3118577 123.63190623 7.3247935 120.68506195 7.3418026 117.73790455 C7.38808372 109.35791357 7.41266685 100.97795845 7.41928673 92.59784412 C7.42431249 87.47193429 7.44862089 82.34640339 7.48461342 77.22062206 C7.4943909 75.27070552 7.4967546 73.3207367 7.49144173 71.37080288 C7.48434016 68.63503924 7.50171811 65.90039653 7.5242672 63.16473866 C7.51609474 62.36599827 7.50792229 61.56725788 7.49950218 60.74431324 C7.5943361 54.24405245 9.51220854 49.06169612 13.7845211 44.11078358 C14.34268517 43.66476795 14.90084923 43.21875233 15.47592735 42.75922108 C16.03151329 42.2977367 16.58709923 41.83625233 17.1595211 41.36078358 C21.27778845 38.67235125 24.89602768 37.8836882 29.77616405 37.87250805 C30.92867305 37.86504256 32.08118204 37.85757706 33.26861554 37.84988534 C34.53028238 37.85182008 35.79194921 37.85375481 37.09184837 37.85574818 C38.44910156 37.85074459 39.80635176 37.84486861 41.16359776 37.83819544 C44.8920325 37.82238899 48.62039189 37.81896441 52.34885609 37.81754684 C56.36995919 37.81385393 60.3910209 37.79869899 64.41209984 37.78493214 C71.37850893 37.76265209 78.34490331 37.74764328 85.31134033 37.73756504 C95.38364892 37.72298308 105.45590626 37.69744761 115.52818479 37.66923375 C131.86955742 37.62375699 148.21093743 37.58714583 164.55234337 37.55609608 C180.42703102 37.52591416 196.30170063 37.49156553 212.17636681 37.45160389 C213.15478774 37.44914234 214.13320867 37.44668079 215.14127872 37.44414465 C220.0497011 37.43177012 224.95812326 37.41931357 229.86654532 37.40681624 C270.5904809 37.3032352 311.3144387 37.21403631 352.03842735 37.13422108 C351.79011955 35.5391975 351.52189277 33.94726757 351.2454586 32.35687733 C351.09826378 31.47008289 350.95106895 30.58328846 350.79941368 29.66962147 C349.56180984 25.54626059 346.7568077 23.15362203 343.03842735 21.13422108 C339.37570908 20.22833735 335.96123123 20.00820025 332.19530487 20.00558662 C331.01924561 20.00236218 329.84318634 19.99913773 328.63148892 19.99581558 C326.69945955 19.99813848 326.69945955 19.99813848 324.72839928 20.00050831 C323.3431393 19.99863984 321.95787984 19.99633899 320.57262123 19.99364299 C316.76649744 19.9875231 312.96039561 19.9876588 309.15426803 19.98883736 C305.04920408 19.98904132 300.94414719 19.9835231 296.83908653 19.97877979 C288.7968813 19.97047178 280.7546834 19.96772489 272.71247424 19.96716741 C266.17613393 19.96669235 259.63979604 19.96463809 253.1034565 19.96146679 C234.57504611 19.95266001 216.04664152 19.94804748 197.51822902 19.94879726 C196.51926459 19.94883722 195.52030015 19.94887718 194.49106407 19.94891834 C192.99078975 19.94897966 192.99078975 19.94897966 191.46020685 19.94904222 C175.24719535 19.94944876 159.03420707 19.93987734 142.82120229 19.92577998 C126.1770559 19.91142181 109.53292083 19.90450947 92.88876808 19.90537375 C83.54301592 19.9057059 74.1972881 19.90295088 64.85154152 19.8921957 C56.89512392 19.8830981 48.9387417 19.88090938 40.98232116 19.88770512 C36.92276028 19.890974 32.8632673 19.89101377 28.80371284 19.88235188 C25.08662159 19.87450223 21.36965226 19.87590254 17.65256403 19.88463601 C15.6726566 19.88690252 13.69274543 19.87933033 11.7128526 19.87139636 C1.82135981 19.67180658 1.82135981 19.67180658 -6.92251015 23.68500233 Z M-60.96157265 47.13422108 C-65.74962289 53.08693219 -66.11124063 58.2576354 -66.10201454 65.66028309 C-66.10498566 66.40957875 -66.10795679 67.15887442 -66.11101794 67.93087602 C-66.11967705 70.43714565 -66.12121082 72.94336737 -66.12270546 75.44965076 C-66.1273356 77.24857147 -66.13236053 79.0474912 -66.13775063 80.8464098 C-66.15085762 85.73085939 -66.15731626 90.61529525 -66.16176128 95.49975967 C-66.16469473 98.55305827 -66.16880005 101.60635313 -66.17326546 104.65964985 C-66.18693585 114.21763903 -66.19660478 123.77561965 -66.20046735 133.33361793 C-66.20494723 144.35781061 -66.22249386 155.38187926 -66.25146794 166.40603423 C-66.27310057 174.93359624 -66.28317247 183.4611234 -66.28450847 191.98871255 C-66.28555535 197.07899926 -66.2914384 202.1691693 -66.30932808 207.25942707 C-66.32583608 212.04963103 -66.327951 216.83963094 -66.31918907 221.62985325 C-66.31842016 223.38377015 -66.32274208 225.13769815 -66.33264732 226.89158726 C-66.81293061 241.15076429 -66.81293061 241.15076429 -60.83657265 253.63422108 C-56.94393543 255.66516223 -53.30339958 255.94503472 -48.96157265 256.13422108 C-49.28619578 254.9839339 -49.61081892 253.83364672 -49.94527912 252.64850235 C-51.00386361 248.39167051 -51.24518027 244.27970294 -51.22226906 239.90572071 C-51.22609461 239.1171098 -51.22992015 238.32849889 -51.23386163 237.51599067 C-51.24411443 234.89460551 -51.24021429 232.27344255 -51.23623085 229.65204334 C-51.24058157 227.76401029 -51.24576592 225.87597901 -51.25171852 223.98795033 C-51.26508021 218.8743265 -51.26569039 213.76077671 -51.26315522 208.64713883 C-51.2620837 204.37281513 -51.26697345 200.0985063 -51.27176064 195.82418579 C-51.2828458 185.73831053 -51.28329865 175.65247252 -51.27724648 165.56659412 C-51.27120521 155.17260821 -51.28352389 144.77875761 -51.30481654 134.38479477 C-51.3224458 125.44952615 -51.32843185 116.51430056 -51.3251788 107.5790152 C-51.3233681 102.24733355 -51.32598104 96.91574846 -51.33989334 91.5840826 C-51.35248876 86.56975771 -51.35051131 81.5556435 -51.33748245 76.54132175 C-51.33512096 74.70516672 -51.337836 72.86899678 -51.34610558 71.03285885 C-51.38643474 61.37949174 -51.38139834 52.97387247 -46.96157265 44.13422108 C-52.52730394 43.84633842 -56.19695239 43.88561636 -60.96157265 47.13422108 Z M372.03842735 44.13422108 C372.03842735 114.09422108 372.03842735 184.05422108 372.03842735 256.13422108 C375.99842735 256.13422108 379.95842735 256.13422108 384.03842735 256.13422108 C384.03842735 186.17422108 384.03842735 116.21422108 384.03842735 44.13422108 C380.07842735 44.13422108 376.11842735 44.13422108 372.03842735 44.13422108 Z " fill="#C8F2FE" transform="translate(85.96157264709473,50.86577892303467)"/>
<path d="M0 0 C1.22795245 -0.00445784 2.4559049 -0.00891569 3.72106802 -0.01350862 C5.08585716 -0.01341932 6.4506463 -0.01322948 7.81543541 -0.01294994 C9.26369143 -0.01624958 10.71194654 -0.01997536 12.16020048 -0.02409142 C16.14521232 -0.0341082 20.1302091 -0.0378277 24.11523175 -0.04048073 C28.41124121 -0.04438473 32.70723874 -0.053963 37.00324059 -0.0626936 C47.38064853 -0.08245518 57.75805745 -0.09252378 68.13547951 -0.10142139 C73.02252616 -0.10580474 77.90957172 -0.11117142 82.79661751 -0.11641026 C99.04245402 -0.13342214 115.28828986 -0.14791635 131.53413391 -0.155159 C135.74992054 -0.15706889 139.96570716 -0.15898922 144.18149376 -0.16094494 C145.22930505 -0.16142868 146.27711634 -0.16191242 147.35667948 -0.16241082 C164.33080175 -0.17071125 181.30485355 -0.19604858 198.27894504 -0.22852562 C215.70617263 -0.26159779 233.1333644 -0.2796079 250.56062353 -0.28280324 C260.3452678 -0.28496817 270.1298093 -0.29371446 279.91442299 -0.31926441 C288.24739384 -0.34097354 296.58023696 -0.34902077 304.91323288 -0.33929763 C309.16360868 -0.33475357 313.41372095 -0.33664526 317.66406059 -0.35605907 C321.55909797 -0.37369608 325.45367966 -0.37268892 329.34872191 -0.35716178 C330.75389092 -0.35478651 332.15909153 -0.35910515 333.56421228 -0.37099043 C345.16450046 -0.46299325 353.79778268 1.31547763 362.3548336 9.40765858 C366.2026231 13.35365152 368.62139021 17.19859061 371.03842735 22.13422108 C371.77367638 22.1488036 372.5089254 22.16338612 373.2664547 22.17841053 C376.64926516 22.25361362 380.03116546 22.3500329 383.41342735 22.44672108 C384.56971642 22.46927967 385.72600548 22.49183826 386.9173336 22.51508045 C399.02032211 22.89116202 409.44530891 25.22104834 418.0501461 34.24359608 C424.02807243 41.51235346 426.49998698 48.40461675 426.42610741 57.70439625 C426.43418571 58.94244057 426.43418571 58.94244057 426.44242722 60.20549589 C426.45665274 62.95134235 426.44961655 65.69670304 426.44248009 68.44257069 C426.44818647 70.41927444 426.45515177 72.39597489 426.46327782 74.37267017 C426.48119428 79.72804951 426.4800437 85.08326486 426.47433543 90.43866515 C426.47124152 94.91430638 426.47733827 99.38991621 426.48337418 103.86555296 C426.49741273 114.42608292 426.49586356 124.98653198 426.48447227 135.54706287 C426.47299046 146.4318731 426.48706942 157.31643696 426.51386875 168.20121473 C426.53603847 177.5568709 426.54266028 186.9124498 426.53679234 196.26813036 C426.53342478 201.85134569 426.53582468 207.43440308 426.55304337 213.01759624 C426.56853069 218.26835958 426.56453692 223.51875838 426.54573822 228.76950741 C426.54205738 230.69273911 426.54514605 232.61599792 426.55562401 234.5392046 C426.64884107 253.06838691 426.64884107 253.06838691 422.03842735 260.13422108 C421.58081017 260.93215076 421.12319298 261.73008045 420.6517086 262.55218983 C414.63343443 270.73921145 406.95191555 275.15302878 397.03842735 277.13422108 C391.44009161 277.46300125 385.83409573 277.33463906 380.23178673 277.13422108 C376.94977998 277.14183153 374.19446471 277.2239753 371.03842735 278.13422108 C368.54225221 280.82805169 367.396563 283.76143808 366.03842735 287.13422108 C360.79876718 293.79622413 354.38170894 298.38712247 346.03842735 300.13422108 C344.20814951 300.23235866 342.37473734 300.27759859 340.54186058 300.28812122 C338.86582756 300.30102192 338.86582756 300.30102192 337.15593529 300.31418324 C335.93452339 300.31844318 334.7131115 300.32270313 333.45468712 300.32709217 C332.16490959 300.33526966 330.87513206 300.34344715 329.54627037 300.35187244 C325.27414587 300.37802534 321.00201186 300.39338827 316.7298336 300.40765858 C315.25769037 300.41302007 313.7855472 300.41839759 312.31340408 300.42379093 C306.19088559 300.44540526 300.06836967 300.46414315 293.94582272 300.47541332 C285.17616183 300.49166435 276.40694307 300.52488601 267.63744885 300.58181417 C261.46748966 300.62050138 255.29764883 300.64004423 249.12757152 300.64533389 C245.44347123 300.64898763 241.75984324 300.6610112 238.07587433 300.69343662 C233.96750188 300.72908248 229.86008244 300.72514964 225.75156212 300.71771717 C224.53217445 300.73412251 223.31278679 300.75052784 222.05644798 300.76743031 C212.88438118 300.69931804 212.88438118 300.69931804 209.80635643 297.74619007 C207.89746578 294.92596201 207.03842735 293.53798982 207.03842735 290.13422108 C208.55138662 285.51571384 209.82986274 282.62429194 214.03842735 280.13422108 C216.51288223 279.76063347 216.51288223 279.76063347 219.33844566 279.76241016 C220.94920479 279.7522739 220.94920479 279.7522739 222.5925045 279.74193287 C223.76559166 279.74965214 224.93867882 279.75737141 226.14731407 279.76532459 C228.00641914 279.75967487 228.00641914 279.75967487 229.90308189 279.75391102 C232.59662147 279.74747068 235.28955646 279.74637522 237.98303413 279.75409603 C242.24452795 279.76568806 246.50575029 279.75350865 250.76721764 279.7374773 C261.35268075 279.70129694 271.93813752 279.69505165 282.52365685 279.69757557 C290.74931907 279.69928764 298.9747593 279.69213883 307.20035946 279.65759701 C311.43384187 279.64082199 315.66678251 279.64258101 319.90026259 279.65841973 C323.15714551 279.66559018 326.41390378 279.64697325 329.67075157 279.63251209 C331.42430962 279.64712734 331.42430962 279.64712734 333.21329308 279.66203785 C339.26877934 279.60831249 343.41953968 279.49837201 348.03842735 275.13422108 C351.70743514 270.51733839 351.45888886 266.25719665 351.41264915 260.62057972 C351.41662356 259.6575282 351.42059797 258.69447668 351.42469281 257.70224178 C351.43432349 254.47254992 351.42249271 251.24329524 351.41074181 248.01361561 C351.41316954 245.69914047 351.41688868 243.38466639 351.42180443 241.0701952 C351.43122053 234.78090979 351.42178125 228.49177982 351.4084723 222.20250654 C351.39716516 215.62341917 351.40126481 209.04433954 351.40321922 202.46524525 C351.40464514 191.41396093 351.39308545 180.36273466 351.37460899 169.31146717 C351.35561372 157.94686499 351.34851923 146.58233409 351.35410118 135.21771717 C351.36081018 121.51800202 351.35750541 107.8183345 351.34499741 94.11862278 C351.34035289 88.88832355 351.33947696 83.65804369 351.34158325 78.42774296 C351.3434674 72.26687409 351.33535236 66.10609663 351.31952286 59.9452486 C351.31528134 57.68415804 351.31442856 55.4230582 351.31721306 53.16196537 C351.32043758 50.07515326 351.31134586 46.9886138 351.29912376 43.90182972 C351.30290309 43.00736641 351.30668241 42.1129031 351.31057626 41.19133484 C351.27213052 35.7006376 351.17905405 29.93398502 347.7063961 25.39203358 C342.57355747 21.46453172 338.51343291 21.00997152 332.19530487 21.00558662 C331.01924561 21.00236218 329.84318634 20.99913773 328.63148892 20.99581558 C326.69945955 20.99813848 326.69945955 20.99813848 324.72839928 21.00050831 C323.3431393 20.99863984 321.95787984 20.99633899 320.57262123 20.99364299 C316.76649744 20.9875231 312.96039561 20.9876588 309.15426803 20.98883736 C305.04920408 20.98904132 300.94414719 20.9835231 296.83908653 20.97877979 C288.7968813 20.97047178 280.7546834 20.96772489 272.71247424 20.96716741 C266.17613393 20.96669235 259.63979604 20.96463809 253.1034565 20.96146679 C234.57504611 20.95266001 216.04664152 20.94804748 197.51822902 20.94879726 C196.51926459 20.94883722 195.52030015 20.94887718 194.49106407 20.94891834 C192.99078975 20.94897966 192.99078975 20.94897966 191.46020685 20.94904222 C175.24719535 20.94944876 159.03420707 20.93987734 142.82120229 20.92577998 C126.1770559 20.91142181 109.53292083 20.90450947 92.88876808 20.90537375 C83.54301592 20.9057059 74.1972881 20.90295088 64.85154152 20.8921957 C56.89512392 20.8830981 48.9387417 20.88090938 40.98232116 20.88770512 C36.92276028 20.890974 32.8632673 20.89101377 28.80371284 20.88235188 C25.08662159 20.87450223 21.36965226 20.87590254 17.65256403 20.88463601 C15.6726566 20.88690252 13.69274543 20.87933033 11.7128526 20.87139636 C1.98370891 20.66231739 1.98370891 20.66231739 -6.70376015 24.46625233 C-11.37868328 30.57589325 -11.10821712 36.11944164 -11.09528542 43.49600697 C-11.09868375 44.91608293 -11.09868375 44.91608293 -11.10215074 46.3648473 C-11.10848402 49.5391236 -11.1076618 52.71335713 -11.10683632 55.88763905 C-11.10982821 58.16270471 -11.11323081 60.43776987 -11.11701393 62.71283436 C-11.1258547 68.89463203 -11.12819207 75.07641586 -11.12882972 81.25821924 C-11.12977891 86.41735325 -11.1334573 91.57648403 -11.13700181 96.7356168 C-11.14468127 108.21114085 -11.1476704 119.68665588 -11.14699646 131.16218184 C-11.14693653 132.19465718 -11.14693653 132.19465718 -11.14687538 133.24799061 C-11.14681406 134.28172903 -11.14681406 134.28172903 -11.1467515 135.33635105 C-11.14634504 146.50547642 -11.15591522 157.67456808 -11.17001375 168.8436837 C-11.18438166 180.31689596 -11.19110062 191.79008495 -11.19041997 203.26330769 C-11.19016486 209.70271477 -11.19302319 216.14208369 -11.20359802 222.58148289 C-11.2132713 228.63727906 -11.21336343 234.69300053 -11.20608139 240.74879932 C-11.20503462 242.97119347 -11.20740391 245.19359224 -11.21344185 247.41597843 C-11.2211515 250.45022967 -11.21652363 253.48422229 -11.20881081 256.5184679 C-11.21395437 257.39736742 -11.21909793 258.27626693 -11.22439736 259.18179977 C-11.19374842 264.64008397 -11.08031431 270.36308096 -7.6295414 274.87640858 C-2.69161858 278.65476641 1.23304225 279.25504612 7.31357384 279.27225208 C8.87807777 279.28043209 8.87807777 279.28043209 10.47418785 279.28877735 C11.60784782 279.28981968 12.7415078 279.29086201 13.9095211 279.29193592 C15.11166252 279.29701664 16.31380394 279.30209736 17.55237389 279.30733204 C20.84156404 279.32081609 24.13074106 279.33021279 27.41994667 279.33874941 C30.86628674 279.34949278 34.31258059 279.36806676 37.75888634 279.38657093 C49.49167747 279.44839788 61.22446251 279.50253309 72.95737267 279.53558826 C79.44207782 279.55393741 85.9266458 279.58287189 92.41125011 279.62359297 C95.8403046 279.64464841 99.2691864 279.66011824 102.69830894 279.66240025 C106.52152275 279.66729441 110.34422358 279.69041359 114.1673336 279.71771717 C115.30099358 279.71471104 116.43465355 279.7117049 117.60266685 279.70860767 C118.64566948 279.71970066 119.6886721 279.73079365 120.76328087 279.74222279 C121.66659645 279.74553293 122.56991203 279.74884308 123.50060081 279.75225353 C126.63362165 280.2238036 128.49218651 281.26890327 131.03842735 283.13422108 C133.4334999 287.15176212 134.17438054 289.22786646 133.47592735 293.88422108 C131.94951154 297.33524814 131.2140767 298.27289109 128.03842735 300.13422108 C125.4814415 300.51453781 125.4814415 300.51453781 122.53754234 300.52190113 C120.85972679 300.53675808 120.85972679 300.53675808 119.14801598 300.55191517 C117.92510857 300.54741352 116.70220116 300.54291187 115.44223595 300.53827381 C113.5049865 300.54856869 113.5049865 300.54856869 111.52860069 300.55907154 C107.98688485 300.57702194 104.44541656 300.57583 100.90366888 300.57012916 C97.9418814 300.56703707 94.98014145 300.57313064 92.01836073 300.5791679 C85.02387007 300.59322044 78.02950149 300.59164852 71.03500938 300.580266 C63.8368161 300.56881022 56.63899651 300.58281565 49.44085252 300.60966247 C43.24955743 300.63188337 37.05837906 300.63844176 30.86704695 300.63258606 C27.17451391 300.6292273 23.4822198 300.63155774 19.78972054 300.64883709 C15.66323897 300.66730295 11.53747337 300.65305381 7.41098595 300.63593006 C6.20022392 300.64559803 4.9894619 300.655266 3.74201012 300.66522694 C-6.76531612 300.57422396 -14.59818901 298.12336154 -22.2779789 290.86078358 C-26.12576839 286.91479064 -28.5445355 283.06985155 -30.96157265 278.13422108 C-31.69682167 278.11963856 -32.43207069 278.10505604 -33.18959999 278.09003162 C-36.57241045 278.01482853 -39.95431075 277.91840925 -43.33657265 277.82172108 C-44.49286171 277.79916248 -45.64915077 277.77660389 -46.8404789 277.7533617 C-58.9434674 277.37728014 -69.3684542 275.04739382 -77.9732914 266.02484608 C-83.95121772 258.7560887 -86.42313228 251.86382541 -86.3492527 242.56404591 C-86.35463824 241.73868302 -86.36002378 240.91332014 -86.36557251 240.06294626 C-86.37979804 237.3170998 -86.37276185 234.57173912 -86.36562538 231.82587147 C-86.37133176 229.84916772 -86.37829706 227.87246726 -86.38642311 225.89577198 C-86.40433958 220.54039264 -86.40318899 215.18517729 -86.39748073 209.829777 C-86.39438681 205.35413577 -86.40048357 200.87852595 -86.40651947 196.40288919 C-86.42055802 185.84235923 -86.41900885 175.28191017 -86.40761757 164.72137928 C-86.39613576 153.83656905 -86.41021472 142.95200519 -86.43701404 132.06722742 C-86.45918376 122.71157126 -86.46580558 113.35599236 -86.45993763 104.00031179 C-86.45657007 98.41709647 -86.45896998 92.83403908 -86.47618866 87.25084591 C-86.49167598 82.00008257 -86.48768221 76.74968377 -86.46888351 71.49893475 C-86.46520267 69.57570305 -86.46829134 67.65244423 -86.4787693 65.72923756 C-86.57198636 47.20005525 -86.57198636 47.20005525 -81.96157265 40.13422108 C-81.27514687 38.93732655 -81.27514687 38.93732655 -80.5748539 37.71625233 C-74.55657972 29.5292307 -66.87506084 25.11541338 -56.96157265 23.13422108 C-51.3632369 22.8054409 -45.75724103 22.93380309 -40.15493202 23.13422108 C-36.87292528 23.12661063 -34.11761 23.04446685 -30.96157265 22.13422108 C-28.46539751 19.44039046 -27.3197083 16.50700407 -25.96157265 13.13422108 C-19.15403628 4.47873073 -10.97319274 0.0184744 0 0 Z M-60.96157265 47.13422108 C-65.74962289 53.08693219 -66.11124063 58.2576354 -66.10201454 65.66028309 C-66.10498566 66.40957875 -66.10795679 67.15887442 -66.11101794 67.93087602 C-66.11967705 70.43714565 -66.12121082 72.94336737 -66.12270546 75.44965076 C-66.1273356 77.24857147 -66.13236053 79.0474912 -66.13775063 80.8464098 C-66.15085762 85.73085939 -66.15731626 90.61529525 -66.16176128 95.49975967 C-66.16469473 98.55305827 -66.16880005 101.60635313 -66.17326546 104.65964985 C-66.18693585 114.21763903 -66.19660478 123.77561965 -66.20046735 133.33361793 C-66.20494723 144.35781061 -66.22249386 155.38187926 -66.25146794 166.40603423 C-66.27310057 174.93359624 -66.28317247 183.4611234 -66.28450847 191.98871255 C-66.28555535 197.07899926 -66.2914384 202.1691693 -66.30932808 207.25942707 C-66.32583608 212.04963103 -66.327951 216.83963094 -66.31918907 221.62985325 C-66.31842016 223.38377015 -66.32274208 225.13769815 -66.33264732 226.89158726 C-66.81293061 241.15076429 -66.81293061 241.15076429 -60.83657265 253.63422108 C-56.94393543 255.66516223 -53.30339958 255.94503472 -48.96157265 256.13422108 C-49.28619578 254.9839339 -49.61081892 253.83364672 -49.94527912 252.64850235 C-51.00386361 248.39167051 -51.24518027 244.27970294 -51.22226906 239.90572071 C-51.22609461 239.1171098 -51.22992015 238.32849889 -51.23386163 237.51599067 C-51.24411443 234.89460551 -51.24021429 232.27344255 -51.23623085 229.65204334 C-51.24058157 227.76401029 -51.24576592 225.87597901 -51.25171852 223.98795033 C-51.26508021 218.8743265 -51.26569039 213.76077671 -51.26315522 208.64713883 C-51.2620837 204.37281513 -51.26697345 200.0985063 -51.27176064 195.82418579 C-51.2828458 185.73831053 -51.28329865 175.65247252 -51.27724648 165.56659412 C-51.27120521 155.17260821 -51.28352389 144.77875761 -51.30481654 134.38479477 C-51.3224458 125.44952615 -51.32843185 116.51430056 -51.3251788 107.5790152 C-51.3233681 102.24733355 -51.32598104 96.91574846 -51.33989334 91.5840826 C-51.35248876 86.56975771 -51.35051131 81.5556435 -51.33748245 76.54132175 C-51.33512096 74.70516672 -51.337836 72.86899678 -51.34610558 71.03285885 C-51.38643474 61.37949174 -51.38139834 52.97387247 -46.96157265 44.13422108 C-52.52730394 43.84633842 -56.19695239 43.88561636 -60.96157265 47.13422108 Z M372.03842735 44.13422108 C372.03842735 114.09422108 372.03842735 184.05422108 372.03842735 256.13422108 C375.99842735 256.13422108 379.95842735 256.13422108 384.03842735 256.13422108 C384.03842735 186.17422108 384.03842735 116.21422108 384.03842735 44.13422108 C380.07842735 44.13422108 376.11842735 44.13422108 372.03842735 44.13422108 Z " fill="#000000" transform="translate(85.96157264709473,50.86577892303467)"/>
<path d="M0 0 C14.89189189 0 14.89189189 0 19 4 C22.15329714 8.1778889 22.42932247 11.81198672 22.38768005 16.88119507 C22.39306559 17.66865384 22.39845113 18.45611261 22.40399987 19.26743376 C22.41829352 21.90289532 22.41117232 24.53785559 22.40405273 27.17333984 C22.40975561 29.06417749 22.41671955 30.95501169 22.42485046 32.84584045 C22.44280723 37.98019772 22.4416086 43.11438431 22.43590808 48.24876356 C22.4328195 52.53555841 22.43890508 56.82232031 22.44494683 61.10911047 C22.45899907 71.22315876 22.45742527 81.3371226 22.44604492 91.45117188 C22.43456607 101.8832377 22.44863393 112.31504637 22.4754414 122.7470783 C22.49759893 131.70519457 22.50423555 140.66323013 22.49836498 149.62137187 C22.49499397 154.97094479 22.49742 160.32035292 22.51461601 165.6699028 C22.53008356 170.70147866 22.52613157 175.73267374 22.50731087 180.76423454 C22.50362431 182.60928843 22.50673541 184.45437051 22.51719666 186.29939842 C22.5304041 188.82164978 22.51886193 191.34264014 22.50120544 193.86483765 C22.51081045 194.59199018 22.52041546 195.31914271 22.53031152 196.06833017 C22.45126637 201.57047375 21.14066608 204.62315764 18 209 C13 212 13 212 0 212 C0 142.04 0 72.08 0 0 Z " fill="#697FFE" transform="translate(470,95)"/>
<path d="M0 0 C4.95 0 9.9 0 15 0 C15 69.96 15 139.92 15 212 C9.39 212 3.78 212 -2 212 C-4.35238444 206.44533066 -5.437196 201.83552328 -5.38095093 195.77149963 C-5.38797089 194.58858327 -5.38797089 194.58858327 -5.39513266 193.3817696 C-5.40702248 190.76027866 -5.39764921 188.13931634 -5.38818359 185.51782227 C-5.392252 183.62978818 -5.3975954 181.74175647 -5.40411377 179.85372925 C-5.417762 174.74006575 -5.41249873 169.62658434 -5.40297651 164.51291776 C-5.39536591 159.15329588 -5.40242952 153.79368928 -5.40713501 148.43406677 C-5.41258894 139.43347382 -5.40541092 130.43295477 -5.39111328 121.43237305 C-5.37479246 111.03837963 -5.38007265 100.64456282 -5.3965925 90.25057369 C-5.41022358 81.3152985 -5.41211894 72.38007636 -5.40427649 63.44479412 C-5.39960827 58.11312049 -5.39895163 52.78152977 -5.40888596 47.44986153 C-5.41757675 42.43552419 -5.41149509 37.42141362 -5.39420319 32.40710068 C-5.39024942 30.5709502 -5.3913533 28.73478051 -5.39799118 26.89863777 C-5.45516277 9.4721773 -5.45516277 9.4721773 -2 2 C-1.34 1.34 -0.68 0.68 0 0 Z " fill="#6A80FF" transform="translate(39,95)"/>
<path d="M0 0 C6.61817991 5.25964581 11.81456224 12.89480731 13.453125 21.2734375 C14.75168721 32.81621267 13.35085973 42.79233209 6.48828125 52.359375 C0.05135783 59.92065186 -8.33469733 65.03930821 -18.29296875 65.875 C-28.84933623 66.39644908 -37.97358811 64.63132164 -46.67578125 58.2109375 C-54.94673592 49.54612785 -59.67941492 39.70206871 -59.44921875 27.59375 C-58.79031763 18.12638131 -54.95432098 9.29929778 -48.30078125 2.4609375 C-33.61497807 -8.93221536 -15.73917245 -10.52841078 0 0 Z " fill="#010000" transform="translate(403.30078125,395.5390625)"/>
<path d="M0 0 C7.03156923 5.18781586 11.87435422 14.44397371 13.83203125 22.80859375 C15.11488221 35.38053312 12.21524477 44.08392656 5.39453125 54.55859375 C-2.33016152 62.49786132 -11.1574774 66.14258688 -22.10546875 66.37109375 C-32.5715842 66.32448674 -41.44503205 63.22797059 -49.10546875 55.88671875 C-56.75191837 47.07964731 -59.34687471 38.36257839 -59.1015625 26.890625 C-58.33530057 17.48871269 -54.6035381 9.47362841 -47.81640625 2.89453125 C-33.50483181 -8.98963834 -15.77525098 -9.59799481 0 0 Z " fill="#000001" transform="translate(153.85546875,395.12890625)"/>
<path d="M0 0 C8.10482867 5.68706552 15.06649021 13.71764648 16.89453125 23.7109375 C17.56605031 35.52709016 17.25277596 45.33083383 9.55859375 54.86328125 C3.01389142 62.13005167 -4.73564283 67.34893646 -14.6796875 67.9140625 C-26.55521076 68.14199407 -35.06243322 66.85540501 -44.10546875 58.7109375 C-51.15118795 51.77912138 -55.15653921 44.05895253 -55.34716797 34.12695312 C-55.39544382 21.89328444 -53.14096284 13.8620383 -44.44140625 5.01953125 C-32.67615568 -5.69812852 -13.87541199 -8.4951502 0 0 Z " fill="#000000" transform="translate(275.10546875,393.2890625)"/>
<path d="M0 0 C4.99948205 1.12086057 6.26683415 1.80450855 9.51953125 5.7890625 C10.64906112 9.06792634 10.56881773 11.48981346 9.51953125 14.7890625 C6.89926826 18.53068535 3.80607586 21.63077329 0.51953125 24.7890625 C-0.66878963 25.99658856 -1.85644241 27.20477306 -3.04296875 28.4140625 C-3.84734375 29.1978125 -4.65171875 29.9815625 -5.48046875 30.7890625 C-3.91536301 34.60898159 -1.49310558 36.94722732 1.45703125 39.7890625 C9.19165041 47.26168425 9.19165041 47.26168425 9.98828125 50.97265625 C10.04572983 55.11613498 9.84842815 57.2691932 7.58203125 60.8515625 C4.10364537 63.05217398 2.04215319 63.77393854 -2.0390625 63.51171875 C-7.31201239 61.95092558 -10.75595741 57.64018612 -14.48046875 53.7890625 C-15.60554429 52.66932856 -16.73327693 51.55225975 -17.86328125 50.4375 C-20.62772587 47.70343812 -23.37684535 44.95571 -26.0949707 42.17553711 C-27.30002891 40.96962952 -28.56000561 39.81909594 -29.828125 38.6796875 C-31.79928326 36.42427238 -32.04810477 35.31504467 -32.04296875 32.3515625 C-32.06488281 31.61035156 -32.08679688 30.86914062 -32.109375 30.10546875 C-31.19177629 26.72574182 -28.97987255 25.20928772 -26.48046875 22.7890625 C-24.80358785 21.02565009 -23.13056272 19.25856498 -21.4609375 17.48828125 C-20.02486997 15.99327117 -18.58497348 14.50206565 -17.14331055 13.01245117 C-16.15782993 11.9865272 -15.17961976 10.95357072 -14.20874023 9.91381836 C-5.05618924 0.13207767 -5.05618924 0.13207767 0 0 Z " fill="#030304" transform="translate(121.48046875,169.2109375)"/>
<path d="M0 0 C1.75463867 1.27490234 1.75463867 1.27490234 3.60546875 2.9609375 C4.30381836 3.59515625 5.00216797 4.229375 5.72167969 4.8828125 C6.47352539 5.58148438 7.22537109 6.28015625 8 7 C8.79567383 7.72960937 9.59134766 8.45921875 10.41113281 9.2109375 C12.95081656 11.56843304 15.44624061 13.96646196 17.9375 16.375 C18.79923828 17.17421875 19.66097656 17.9734375 20.54882812 18.796875 C27.44261803 25.51139377 27.44261803 25.51139377 28.28515625 30.8125 C28.31348621 33.72762085 28.04793241 34.90943005 26.65625 37.5390625 C25.9446875 38.22742188 25.233125 38.91578125 24.5 39.625 C23.68273437 40.44226563 22.86546875 41.25953125 22.0234375 42.1015625 C21.55260742 42.55047852 21.08177734 42.99939453 20.59667969 43.46191406 C18.75020233 45.24063078 16.95741579 47.06619434 15.1640625 48.8984375 C12.53940075 51.56819871 9.91097139 54.23352601 7.2578125 56.875 C6.7023877 57.42929688 6.14696289 57.98359375 5.57470703 58.5546875 C1.78504799 62.0329482 -0.82831684 62.51228026 -5.76953125 62.3671875 C-8 62 -8 62 -11.0625 60.0625 C-13.22314886 56.64728084 -14.07942151 54.62804351 -13.890625 50.609375 C-11.86826029 44.68420121 -6.41669545 40.26248122 -2 36 C-0.66556246 34.66777179 0.66825302 33.3349178 2 32 C0.40564046 27.98563044 -2.44179218 25.36531911 -5.5 22.4375 C-13.28288984 14.92610631 -13.28288984 14.92610631 -13.5 9.625 C-13.40464032 5.72796765 -13.09829564 5.11747528 -10.4375 1.9375 C-6.33192394 -0.37655196 -4.6277476 -0.95746502 0 0 Z " fill="#030404" transform="translate(394,170)"/>
<path d="M0 0 C4.9981495 2.67142473 8.27030829 5.90467487 10.0625 11.28125 C10.6014234 17.74833082 9.83654343 20.97718897 6.0625 26.28125 C1.6032457 30.4142174 -1.76193087 31.60429156 -7.8828125 31.4921875 C-12.61541884 31.00633058 -15.71790809 28.76382414 -18.75 25.28125 C-22.04792257 20.75838476 -22.499651 16.75701714 -21.9375 11.28125 C-20.07893173 6.01530656 -17.33435804 3.48729232 -12.9375 0.28125 C-8.59152177 -1.16740941 -4.33374753 -1.60768053 0 0 Z " fill="#677DFA" transform="translate(261.9375,409.71875)"/>
<path d="M0 0 C3.99902787 2.34629311 7.17981042 4.5628534 8.7421875 9.0546875 C9.376462 14.22522903 9.55913398 19.24355078 7.1796875 23.9921875 C3.82932038 28.20162311 0.8677547 30.52649931 -4.5 31.43359375 C-11.52083669 31.80000105 -14.93532207 29.0742444 -20.1328125 24.5546875 C-23.07537 20.76590431 -23.06794057 16.69040518 -22.8828125 12.0390625 C-21.85603346 7.13619259 -19.11900517 4.11538901 -15.2578125 1.0546875 C-10.45108873 -1.83506905 -5.19602609 -2.17549881 0 0 Z " fill="#FB5B5B" transform="translate(387.2578125,409.9453125)"/>
<path d="M0 0 C4.76314818 3.20994769 8.22583561 5.96522533 9.49609375 11.78125 C9.84430251 17.4094406 9.3446082 21.1595342 5.6875 25.5625 C1.58473232 29.51756805 -1.26680912 30.72426498 -6.9375 31.375 C-11.89617229 31.23412863 -15.42842603 29.13269957 -19.125 25.9375 C-22.97041757 20.89038944 -22.92523137 15.03926422 -22.125 8.9375 C-20.07268323 4.42240311 -17.39774213 1.85358216 -13.05078125 -0.37109375 C-8.53154082 -1.99362023 -4.53992703 -1.54357519 0 0 Z " fill="#687EFB" transform="translate(138.125,410.0625)"/>
<path d="M0 0 C2.86942113 2.26533247 3.83907612 3.51722837 5 7 C5.47043558 11.23392019 5.44127101 13.30867543 3.125 16.9375 C-1.25051183 19.82533781 -4.89829907 20.02870363 -10 19 C-13.125 16.9375 -13.125 16.9375 -15 14 C-15.55156805 10.13902368 -15.35698156 7.82669414 -13.8125 4.25 C-9.70632557 -0.84731998 -6.32130664 -1.72399272 0 0 Z " fill="#010202" transform="translate(261,332)"/>
</svg>
